<?xml version="1.0" standalone="no"?>
<!DOCTYPE svg PUBLIC "-//W3C//DTD SVG 20010904//EN"
 "http://www.w3.org/TR/2001/REC-SVG-20010904/DTD/svg10.dtd">
<svg version="1.0" xmlns="http://www.w3.org/2000/svg"
 width="700.000000pt" height="700.000000pt" viewBox="0 0 700.000000 700.000000"
 preserveAspectRatio="xMidYMid meet">
<metadata>
Created by potrace 1.11, written by Peter Selinger 2001-2013
</metadata>
<g transform="translate(0.000000,700.000000) scale(0.100000,-0.100000)"
fill="#000000" stroke="none">
<path d="M3548 5919 c-53 -14 -192 -95 -291 -170 -193 -145 -347 -314 -505
-557 -31 -47 -57 -82 -58 -76 -3 8 -66 392 -80 478 -3 21 -8 48 -10 60 -2 11
-7 37 -10 56 -9 46 -30 78 -65 96 -41 20 -66 18 -137 -16 -233 -110 -466 -381
-661 -770 -42 -85 -83 -171 -90 -190 -15 -44 -12 -50 -101 185 -39 105 -77
201 -85 215 -33 60 -108 83 -163 50 -73 -45 -276 -308 -370 -481 -62 -114
-129 -285 -162 -411 -12 -45 -24 -60 -32 -39 -4 11 -160 183 -244 269 -54 55
-65 62 -100 62 -47 0 -96 -28 -116 -67 -163 -312 -235 -505 -256 -687 -13
-116 -4 -467 13 -496 1 -3 6 -27 9 -55 13 -97 69 -287 121 -415 35 -83 111
-237 136 -271 10 -15 19 -30 19 -33 0 -5 80 -126 90 -136 3 -3 24 -30 47 -60
23 -30 62 -77 87 -104 l44 -50 -23 -61 c-60 -161 -142 -279 -302 -439 -28 -29
-55 -65 -59 -80 -11 -45 11 -98 52 -126 35 -23 45 -25 163 -24 69 0 153 6 186
13 165 36 364 122 515 223 59 39 79 48 96 41 12 -4 64 -25 116 -46 l94 -39 2
-184 c0 -101 6 -203 12 -226 38 -143 161 -255 301 -275 30 -4 56 -7 59 -6 3 0
29 4 58 7 112 13 212 89 268 201 37 74 37 76 40 216 1 77 4 142 6 144 5 5 50
7 143 6 l90 -1 -1 -118 c0 -167 17 -230 86 -317 178 -224 536 -161 631 111 17
47 21 85 22 191 1 154 -14 140 139 135 l96 -3 4 -142 c4 -118 8 -151 27 -198
58 -143 210 -239 366 -232 97 5 208 67 270 151 54 73 73 146 74 292 1 68 6
127 10 130 5 3 58 4 118 2 l109 -3 0 -127 c1 -176 29 -257 120 -343 70 -65
142 -96 249 -103 33 -3 131 22 172 44 22 11 60 40 86 64 85 82 110 157 112
338 0 70 4 131 8 135 4 4 24 8 45 10 32 2 65 7 197 29 17 3 50 10 75 15 25 6
54 12 64 15 51 10 211 59 296 91 375 139 726 365 1020 654 112 110 198 212
206 245 15 59 -28 128 -94 148 -43 14 -222 105 -304 157 -473 292 -748 688
-821 1179 -14 91 -16 352 -3 442 18 132 81 335 150 479 19 42 34 84 32 95 -11
55 -20 71 -49 91 -42 28 -80 33 -272 38 -205 4 -377 -22 -540 -85 -16 -6 -32
-12 -35 -12 -3 -1 -42 -20 -87 -44 l-82 -43 -5 27 c-5 26 -9 52 -20 157 -19
167 -27 227 -31 255 -2 14 -7 54 -10 90 -17 155 -79 179 -281 112 -183 -61
-350 -153 -509 -280 -38 -31 -72 -58 -75 -61 -57 -59 -181 -173 -179 -166 2 6
-1 30 -5 55 -4 25 -21 119 -36 210 -16 91 -32 181 -35 200 -13 81 -17 96 -28
110 -32 41 -86 61 -129 49z m-43 -390 c3 -30 10 -67 15 -84 5 -16 11 -48 14
-70 16 -123 69 -402 81 -425 20 -38 58 -60 102 -60 48 0 71 16 119 82 133 186
312 355 495 470 86 54 256 134 266 125 5 -6 7 -21 23 -157 6 -52 13 -111 15
-130 3 -19 7 -57 10 -85 3 -27 8 -66 10 -85 3 -19 9 -75 15 -125 14 -122 48
-165 129 -165 33 0 61 16 121 70 33 30 113 81 176 113 50 25 192 75 236 82 13
2 50 8 83 14 54 9 164 15 221 12 21 -1 20 -4 -17 -113 -92 -273 -116 -559 -73
-860 7 -52 7 -52 -29 -39 -57 22 -273 32 -382 18 -74 -9 -193 -42 -264 -72
-35 -14 -64 -25 -66 -23 -1 2 -15 27 -30 57 -52 104 -168 205 -290 251 -92 35
-246 37 -344 4 -310 -103 -460 -459 -315 -746 13 -26 23 -48 22 -49 -2 0 -41
-2 -88 -4 -122 -4 -330 -16 -365 -20 -16 -2 -62 -6 -102 -9 -83 -7 -273 -32
-353 -46 -30 -5 -70 -12 -87 -15 -77 -12 -98 -17 -220 -45 -153 -35 -293 -76
-428 -126 -55 -20 -115 -41 -132 -48 -18 -6 -33 -14 -33 -18 0 -5 -7 -8 -15
-8 -9 0 -47 -16 -85 -35 -431 -217 -703 -506 -825 -876 l-31 -96 -45 30 c-383
261 -678 706 -765 1152 -11 57 -14 73 -19 110 -44 297 -10 535 114 809 l32 70
22 -25 c251 -280 331 -365 355 -378 47 -25 123 -4 151 41 7 11 14 41 17 66 24
228 64 369 165 577 50 102 176 298 194 299 9 1 23 -33 151 -374 40 -107 76
-186 92 -202 47 -50 129 -46 172 9 10 13 33 67 50 121 81 248 232 557 359 737
53 74 77 101 170 195 l85 85 7 -35 c5 -19 11 -51 14 -70 3 -19 10 -60 15 -90
5 -30 11 -68 14 -85 3 -16 10 -57 16 -90 5 -33 13 -82 16 -110 3 -27 7 -52 9
-56 2 -3 13 -66 25 -140 12 -73 29 -149 38 -168 28 -60 124 -79 174 -34 11 10
43 65 70 123 171 360 443 702 669 839 32 20 34 20 40 2 4 -10 10 -42 14 -72z
m889 -1417 c111 -31 199 -146 210 -274 5 -54 17 -79 52 -107 41 -32 90 -27
154 15 230 150 478 182 754 97 l58 -18 48 -110 c95 -221 206 -383 389 -565
127 -126 143 -140 216 -195 22 -16 42 -33 43 -37 2 -4 8 -8 14 -8 6 0 27 -12
47 -27 20 -16 45 -33 56 -40 84 -50 157 -92 198 -113 26 -14 47 -29 47 -34 0
-5 -14 -22 -31 -37 -18 -16 -55 -50 -83 -77 -46 -43 -144 -126 -207 -175 -127
-99 -388 -251 -539 -316 -41 -18 -84 -36 -95 -41 -33 -16 -202 -69 -284 -90
-102 -26 -150 -35 -221 -44 -25 -3 -56 -9 -70 -13 -14 -3 -284 -8 -600 -10
-621 -5 -621 -5 -657 -59 -16 -25 -18 -53 -19 -221 -1 -122 -6 -204 -14 -222
-27 -66 -116 -96 -179 -60 -69 38 -74 57 -75 279 -1 168 -4 201 -19 223 -39
59 -6 57 -836 54 l-761 -2 -32 -33 -33 -32 -2 -188 c-2 -103 -5 -201 -8 -218
-3 -16 -21 -45 -40 -64 -60 -58 -152 -44 -198 29 -21 34 -22 47 -23 261 -1
124 -2 233 -3 242 -2 39 -51 76 -134 104 -136 45 -218 84 -213 103 3 9 12 44
20 77 93 367 404 667 886 857 106 41 260 94 303 102 10 2 50 13 90 24 62 17
265 59 362 76 28 4 216 29 310 40 22 2 74 7 115 11 41 3 95 8 120 11 25 2 223
6 440 7 289 2 402 6 419 15 32 17 61 86 51 120 -19 67 -60 96 -138 100 -58 3
-138 39 -185 85 -172 167 -81 462 155 505 49 9 92 6 142 -7z m-3561 -2030 c34
-26 75 -56 90 -65 15 -10 25 -22 22 -27 -19 -30 -318 -165 -339 -153 -4 3 -4
8 0 12 5 3 14 15 21 26 80 132 106 180 120 214 9 23 18 41 20 41 2 0 31 -22
66 -48z m4015 -548 c2 -104 0 -123 -17 -151 -54 -88 -164 -93 -223 -10 -20 27
-22 45 -24 154 l-2 122 71 3 c40 2 99 3 132 2 l60 -1 3 -119z m-1952 -8 c-2
-134 -10 -159 -63 -193 -36 -24 -105 -22 -140 3 -51 37 -63 77 -63 202 l0 112
134 0 135 0 -3 -124z"/>
<path d="M5293 3280 c-112 -50 -76 -220 47 -220 110 0 159 142 72 207 -39 28
-76 33 -119 13z"/>
</g>
</svg>
